<?xml version="1.0" standalone="no"?><!DOCTYPE svg PUBLIC "-//W3C//DTD SVG 1.1//EN" "http://www.w3.org/Graphics/SVG/1.1/DTD/svg11.dtd"><svg t="1663552270426" class="icon" viewBox="0 0 1024 1024" version="1.1" xmlns="http://www.w3.org/2000/svg" p-id="3757" width="32" height="32" xmlns:xlink="http://www.w3.org/1999/xlink"><path d="M668.586667 763.306667H340.096a31.957333 31.957333 0 0 1-30.72-40.917334L440.746667 262.4a31.914667 31.914667 0 0 1 30.72-23.04h129.706666a34.133333 34.133333 0 0 1 25.6 12.373333 32.725333 32.725333 0 0 1 5.504 27.733334l-79.786666 298.666666h138.666666a33.28 33.28 0 0 1 24.746667 11.52 32.170667 32.170667 0 0 1 6.826667 26.026667l-21.76 121.173333a34.133333 34.133333 0 0 1-32.384 26.453334zM494.933333 303.36l-112.64 395.946667h259.413334l10.24-57.173334h-141.653334a33.792 33.792 0 0 1-25.6-12.373333 32.682667 32.682667 0 0 1-5.546666-27.733333l79.786666-298.666667h-64z" p-id="3758" fill="#1296db"></path><path d="M281.130667 540.544a31.744 31.744 0 0 1 25.173333-37.546667l328.362667-65.706666a32 32 0 1 1 12.373333 62.72l-328.533333 65.706666a32.298667 32.298667 0 0 1-6.4 0.426667 31.914667 31.914667 0 0 1-30.976-25.6z" p-id="3759" fill="#1296db"></path><path d="M512 970.666667A458.666667 458.666667 0 1 1 970.666667 512 459.178667 459.178667 0 0 1 512 970.666667z m0-853.333334A394.666667 394.666667 0 1 0 906.666667 512 395.093333 395.093333 0 0 0 512 117.333333z" p-id="3760" fill="#1296db"></path></svg>